# xmcd CD database file
#
# Track frame offsets:
#	150
#	22501
#	47547
#	66391
#	83801
#	105051
#	135871
#	157430
#	186468
#	212137
#	236474
#	255539
#	275452
#	299667
#	317859
#
# Disc length: 4504 seconds
#
# Revision: 3
# Processed by: cddbd v1.5.2PL0 Copyright (c) Steve Scherf et al.
# Submitted via: CDex 1.70beta3
#
DISCID=d211960f
DTITLE=氣志團 - 蔑衆斗 呼麗苦衝音
DYEAR=2011
DGENRE=JPop
TTITLE0=One Night Carnival
TTITLE1=結婚闘魂行進曲 「マブダチ」
TTITLE2=愛 羅 武 勇
TTITLE3=夢見る頃を過ぎても
TTITLE4=スウィンギン・ニッポン
TTITLE5=恋人
TTITLE6=族
TTITLE7=SECRET LOVE STORY
TTITLE8=俺達には土曜日しかない
TTITLE9=キラ キラ！
TTITLE10=The アイシテル
TTITLE11=黒い太陽
TTITLE12=You and Me Song
TTITLE13=3 3 0
TTITLE14=BOYS BRAVO!
EXTD=YEAR: 2011
EXTT0=
EXTT1=
EXTT2=
EXTT3=
EXTT4=
EXTT5=
EXTT6=
EXTT7=
EXTT8=
EXTT9=
EXTT10=
EXTT11=
EXTT12=
EXTT13=
EXTT14=
PLAYORDER=
